# xmcd CD database file
#
# Track frame offsets:
#	183
#	21555
#	47433
#	70070
#	96188
#	119013
#	142593
#	172185
#	189290
#	206423
#	228995
#	253500
#	275078
#	296550
#
# Disc length: 4322 seconds
#
# Revision: 5
# Processed by: cddbd v1.5.2PL0 Copyright (c) Steve Scherf et al.
# Submitted via: CDex 1.70beta2
#
DISCID=cc10e00e
DTITLE=Johnny "Guitar" Watson - The Best Of Johnny "Guitar" Watson
DYEAR=1995
DGENRE=Funk
TTITLE0=I Need It
TTITLE1=Superman Lover
TTITLE2=Ain't That A Bitch
TTITLE3=I Want To Ta-Ta You Baby
TTITLE4=A Real Mother For Ya
TTITLE5=Funk Beyond The Call Of Duty
TTITLE6=Lone Ranger
TTITLE7=Gangster Of Lve
TTITLE8=Love That Will Not Die
TTITLE9=Tarzan
TTITLE10=Booty Ooty
TTITLE11=Love Jones
TTITLE12=Telephone Bill
TTITLE13=What The Hell Is This?
EXTD=1995 compilation YEAR: 1995
EXTT0=
EXTT1=
EXTT2=
EXTT3=
EXTT4=
EXTT5=
EXTT6=
EXTT7=
EXTT8=
EXTT9=
EXTT10=
EXTT11=
EXTT12=
EXTT13=
PLAYORDER=
